<svg width="40" height="40" viewBox="0 0 40 40" fill="none" xmlns="http://www.w3.org/2000/svg">
<g id="&#209;&#128;&#209;&#131;tube">
<circle id="Ellipse" cx="20" cy="20" r="19.5" fill="#111010" stroke="#2E2B2B"/>
<g id="Group 647">
<path id="Vector" d="M22.9897 14.6099H12V26.5029H15.0588V22.6336H20.9199L23.5941 26.5029H27.0192L24.0703 22.6159C24.9861 22.4732 25.6455 22.1344 26.0485 21.5995C26.4514 21.0646 26.6529 20.2087 26.6529 19.0675V18.176C26.6529 17.4984 26.5797 16.9635 26.4514 16.5534C26.3231 16.1433 26.1034 15.7867 25.792 15.4657C25.4623 15.1626 25.096 14.9486 24.6564 14.806C24.2168 14.6812 23.6673 14.6099 22.9897 14.6099ZM22.4952 20.0126H15.0588V17.231H22.4952C22.9164 17.231 23.2094 17.3023 23.356 17.4271C23.5025 17.5519 23.5941 17.7837 23.5941 18.1225V19.1211C23.5941 19.4777 23.5025 19.7095 23.356 19.8342C23.2094 19.959 22.9164 20.0126 22.4952 20.0126Z" fill="#6D6F72"/>
<path id="Vector_2" d="M27.9297 14.0176C29.0728 14.0176 30 13.0853 30 11.9353C30 10.7853 29.0728 9.85303 27.9297 9.85303C26.7859 9.85303 25.8586 10.7853 25.8586 11.9353C25.8586 13.0853 26.7859 14.0176 27.9297 14.0176Z" fill="#6D6F72"/>
</g>
</g>
</svg>
