<svg width="75" height="44" viewBox="0 0 75 44" fill="none" xmlns="http://www.w3.org/2000/svg">
<g id="Group">
<path id="Vector" d="M19.9227 38.1156C19.113 38.1156 18.4567 37.4592 18.4567 36.6496C18.4567 35.8399 19.113 35.1836 19.9227 35.1836C20.7323 35.1836 21.3887 35.8399 21.3887 36.6496C21.3887 37.4592 20.7323 38.1156 19.9227 38.1156Z" fill="white"/>
<path id="Vector_2" d="M31.6507 38.1156C30.8411 38.1156 30.1847 37.4592 30.1847 36.6496C30.1847 35.8399 30.8411 35.1836 31.6507 35.1836C32.4604 35.1836 33.1167 35.8399 33.1167 36.6496C33.1167 37.4592 32.4604 38.1156 31.6507 38.1156Z" fill="white"/>
<path id="Vector_3" d="M43.3787 38.1156C42.5691 38.1156 41.9128 37.4592 41.9128 36.6496C41.9128 35.8399 42.5691 35.1836 43.3787 35.1836C44.1884 35.1836 44.8447 35.8399 44.8447 36.6496C44.8447 37.4592 44.1884 38.1156 43.3787 38.1156Z" fill="white"/>
<path id="Vector_4" d="M55.1065 38.1156C54.2969 38.1156 53.6405 37.4592 53.6405 36.6496C53.6405 35.8399 54.2969 35.1836 55.1065 35.1836C55.9162 35.1836 56.5725 35.8399 56.5725 36.6496C56.5725 37.4592 55.9162 38.1156 55.1065 38.1156Z" fill="white"/>
<path id="Vector_5" d="M4.38338 17.5919H18.9406L24.3208 1.46599C24.6287 0.615715 25.2444 0 26.0653 0H36.0487H38.9807H50.7086H53.6406H58.0385C60.4574 0 62.4365 1.97908 62.4365 4.39796V11.7279H70.646C71.8774 11.7279 72.9916 12.241 73.7832 13.0473C74.4136 13.6923 74.8534 14.5279 75 15.4515V21.9458C75 30.5365 69.5172 37.8665 61.8648 40.6225L59.871 42.2351C58.5516 43.3639 56.8657 43.9796 55.1212 43.9796C52.7317 43.9796 50.5913 42.8215 49.2573 41.0477C47.9232 42.8215 45.7829 43.9796 43.3933 43.9796C41.0038 43.9796 38.8634 42.8215 37.5294 41.0477C36.1953 42.8215 34.055 43.9796 31.6654 43.9796C29.2759 43.9796 27.1355 42.8215 25.8015 41.0477C24.4674 42.8215 22.3271 43.9796 19.9375 43.9796C18.193 43.9796 16.5071 43.3639 15.1877 42.2351C15.1731 42.2204 1.55403 31.2255 1.52471 31.1962C0.557157 30.3606 8.29988e-05 29.1438 8.29988e-05 27.8684V22.0045C-0.0145769 19.5709 1.96451 17.5919 4.38338 17.5919ZM59.5045 4.39796C59.5045 3.59167 58.8448 2.93198 58.0385 2.93198H27.2528L22.4883 17.5919H43.0268L54.4469 11.8892C54.6521 11.7865 54.8867 11.7279 55.1066 11.7279H59.5045V4.39796ZM55.1066 41.0477C55.1212 41.0477 55.1359 41.0477 55.1505 41.0477C56.9537 41.033 58.4783 39.9335 59.1527 38.3649C59.3726 37.8371 59.5045 37.2507 59.5045 36.6497C59.5045 34.2308 57.5254 32.2517 55.1066 32.2517C52.6877 32.2517 50.7086 34.2308 50.7086 36.6497C50.7086 39.0686 52.6877 41.0477 55.1066 41.0477ZM43.3787 41.0477C45.7975 41.0477 47.7766 39.0686 47.7766 36.6497C47.7766 34.2308 45.7975 32.2517 43.3787 32.2517C40.9598 32.2517 38.9807 34.2308 38.9807 36.6497C38.9807 39.0686 40.9598 41.0477 43.3787 41.0477ZM31.6508 41.0477C34.0696 41.0477 36.0487 39.0686 36.0487 36.6497C36.0487 34.2308 34.0696 32.2517 31.6508 32.2517C29.2319 32.2517 27.2528 34.2308 27.2528 36.6497C27.2528 39.0686 29.2319 41.0477 31.6508 41.0477ZM19.9229 41.0477C22.3417 41.0477 24.3208 39.0686 24.3208 36.6497C24.3208 34.2308 22.3417 32.2517 19.9229 32.2517C17.504 32.2517 15.5249 34.2308 15.5249 36.6497C15.5249 39.0832 17.504 41.0477 19.9229 41.0477ZM4.38338 29.3198C5.18968 29.3198 5.84937 28.6601 5.84937 27.8538C5.84937 27.0475 5.18968 26.3878 4.38338 26.3878C3.57709 26.3878 2.9174 27.0475 2.9174 27.8538C2.9174 28.6307 3.54777 29.3198 4.38338 29.3198ZM2.9174 23.705C3.37185 23.5438 3.87029 23.4558 4.38338 23.4558H30.8738C31.6508 23.4558 32.3398 24.0422 32.3837 24.8192C32.4424 25.6694 31.768 26.3878 30.9178 26.3878H8.53213C8.69339 26.8422 8.78135 27.3407 8.78135 27.8538C8.78135 29.437 7.94574 30.8297 6.68499 31.592L12.5929 36.3858C12.7395 32.4716 15.9647 29.3198 19.9229 29.3198C22.3124 29.3198 24.4528 30.4779 25.7868 32.2517C27.1208 30.4632 29.2612 29.3198 31.6508 29.3198C34.0403 29.3198 36.1807 30.4779 37.5147 32.2517C38.8488 30.4632 40.9891 29.3198 43.3787 29.3198C45.7682 29.3198 47.9086 30.4779 49.2426 32.2517C50.5767 30.4632 52.717 29.3198 55.1066 29.3198C58.8888 29.3198 63.1402 32.2077 62.2606 37.2801C63.0962 36.8989 63.8878 36.4445 64.6355 35.9314C65.4271 35.3889 66.1748 34.7879 66.8638 34.1282C70.0596 31.0496 72.0534 26.725 72.0534 21.9458V15.7447C71.8921 15.1143 71.3204 14.6599 70.6314 14.6599H55.4437L44.0237 20.3626C43.8184 20.4652 43.5985 20.5238 43.364 20.5238H4.36872C3.56243 20.5238 2.90274 21.1835 2.90274 21.9898V23.705H2.9174Z" fill="white"/>
<path id="Vector_6" d="M43.3787 14.6599C42.5724 14.6599 41.9128 14.0002 41.9128 13.194V7.33C41.9128 6.52371 42.5724 5.86401 43.3787 5.86401C44.185 5.86401 44.8447 6.52371 44.8447 7.33V13.194C44.8447 14.0002 44.185 14.6599 43.3787 14.6599Z" fill="white"/>
<path id="Vector_7" d="M37.5147 14.6599C36.7084 14.6599 36.0487 14.0002 36.0487 13.194V7.33C36.0487 6.52371 36.7084 5.86401 37.5147 5.86401C38.321 5.86401 38.9807 6.52371 38.9807 7.33V13.194C38.9807 14.0002 38.321 14.6599 37.5147 14.6599Z" fill="white"/>
<path id="Vector_8" d="M31.6507 14.6599C30.8444 14.6599 30.1847 14.0002 30.1847 13.194V7.33C30.1847 6.52371 30.8444 5.86401 31.6507 5.86401C32.457 5.86401 33.1167 6.52371 33.1167 7.33V13.194C33.1167 14.0002 32.457 14.6599 31.6507 14.6599Z" fill="white"/>
<path id="Vector_9" d="M37.5147 26.3878C36.7051 26.3878 36.0487 25.7314 36.0487 24.9218C36.0487 24.1122 36.7051 23.4558 37.5147 23.4558C38.3244 23.4558 38.9807 24.1122 38.9807 24.9218C38.9807 25.7314 38.3244 26.3878 37.5147 26.3878Z" fill="white"/>
</g>
</svg>
