<svg width="75" height="50" viewBox="0 0 75 50" fill="none" xmlns="http://www.w3.org/2000/svg">
<g id="Group">
<path id="Vector" d="M72.4951 33.1432V22.3883C72.4951 19.4761 70.2539 17.134 67.5 17.134V6.61016C67.5 2.9738 64.7021 0.0462244 61.2451 0.0308161H56.499C56.499 0.0308161 54.5654 0.0154069 53.5547 0.0154069V0H6.29883C2.88574 0 0.117188 2.88135 0.0585938 6.45608H0V11.1248C0 12.9276 1.15723 14.4992 2.8125 14.946L3.28125 15.0847L0.65918 20.6163C-0.703125 23.4822 0.102539 26.9645 2.57813 28.8443L5.15625 30.8166C3.14941 34.8844 3.2959 39.7688 5.56641 43.6979C7.83691 47.6116 11.8799 50.0153 16.2451 49.9999C17.6514 49.9537 19.0723 49.738 20.3906 49.2757C21.5625 48.8597 22.6611 48.1047 23.7158 47.3805C24.4629 46.795 25.4883 45.8551 26.4404 44.4683C27.1875 43.3589 27.7881 42.1263 28.1836 40.8166H44.3408C45.1318 43.4514 46.6992 45.7472 48.7939 47.3959C50.6543 48.8443 52.8516 49.7226 55.166 49.9229H55.21C57.5537 50.1232 59.9121 49.6764 61.9922 48.5361C64.8779 46.9645 67.1484 44.2218 68.1738 40.8012H71.25C73.3154 40.7858 74.9854 39.0292 75 36.8566C75 35.1926 73.9893 33.6979 72.4951 33.1432ZM61.2451 2.66564C63.3105 2.66564 64.9951 4.43759 64.9951 6.61016V17.134H58.5791L62.2852 11.2943C62.5342 10.9091 62.5635 10.4006 62.373 9.98458C62.168 9.56855 61.7725 9.2912 61.333 9.26039C60.8936 9.22957 60.4541 9.44529 60.2051 9.8459L55.5762 17.1494H52.3242L56.0303 11.3097C56.2793 10.9245 56.3086 10.416 56.1182 9.99998C55.9131 9.58396 55.5176 9.30661 55.0781 9.2758C54.6387 9.24498 54.1992 9.4607 53.9502 9.86131L49.3213 17.1648H45.6592L54.8291 2.69645H61.2451V2.66564ZM16.2451 47.3651C10.7227 47.3651 6.25488 42.6502 6.24023 36.8412C6.24023 31.0323 10.7227 26.3174 16.2451 26.3174C21.7676 26.3174 26.25 31.0323 26.25 36.8412C26.25 42.6656 21.7676 47.3651 16.2451 47.3651ZM43.8135 38.1664H28.6816C28.7695 37.2881 28.7695 36.4098 28.6816 35.5315H43.8135C43.7256 36.4098 43.7256 37.2881 43.8135 38.1664ZM56.25 47.3651C50.7275 47.3651 46.2451 42.6502 46.2451 36.8412C46.2451 31.0323 50.7275 26.3174 56.25 26.3174C61.7725 26.3174 66.2549 31.0323 66.2549 36.8412C66.2402 42.6656 61.7725 47.3651 56.25 47.3651ZM56.25 23.698C50.7861 23.698 45.9668 27.4268 44.3262 32.8967H28.1689C26.792 28.2742 23.1006 24.8228 18.5742 23.9137C14.0479 23.02 9.41895 24.8074 6.51855 28.5978L4.04297 26.7026C2.56348 25.5778 2.06543 23.4977 2.88574 21.7873L5.75684 15.7627C5.75684 15.7627 5.90332 15.4237 5.97656 15.2542C5.97656 15.2542 5.97656 15.2388 5.99121 15.2388C6.41602 14.2681 5.88867 13.1279 4.90723 12.8351L3.44238 12.4191C2.88574 12.265 2.50488 11.7411 2.50488 11.1402V6.57934H2.54883C2.54883 4.40677 4.2334 2.63482 6.29883 2.63482H51.8555L42.5098 17.3806C42.2607 17.7658 42.1582 18.2434 42.2314 18.6903C42.2607 18.906 42.3486 19.1217 42.4951 19.2758C42.9346 19.738 44.0039 19.7534 44.0039 19.7534H67.5C68.877 19.7534 70.0049 20.9245 70.0049 22.3883V32.9121H68.1738C66.5332 27.4268 61.7139 23.698 56.25 23.698ZM72.1143 37.7966C71.8799 38.0431 71.5723 38.1818 71.25 38.1664H68.6865C68.7744 37.2881 68.7744 36.4098 68.6865 35.5315H71.25C71.9385 35.5315 72.4951 36.1171 72.4951 36.8412C72.4951 37.211 72.3633 37.55 72.1143 37.7966Z" fill="white"/>
<path id="Vector_2" d="M56.25 31.5869C53.4814 31.5869 51.2549 33.9444 51.2549 36.8411C51.2549 39.7533 53.4961 42.0954 56.25 42.0954C59.0039 42.0954 61.2451 39.7379 61.2451 36.8411C61.2451 33.9444 59.0186 31.5869 56.25 31.5869ZM56.25 39.476C54.873 39.476 53.7451 38.3049 53.7451 36.8411C53.7451 35.3928 54.8584 34.2063 56.25 34.2063C57.627 34.2063 58.7549 35.3774 58.7549 36.8411C58.7549 38.3049 57.627 39.476 56.25 39.476Z" fill="white"/>
<path id="Vector_3" d="M16.2451 31.5869C13.4766 31.5869 11.25 33.9444 11.25 36.8411C11.25 39.7533 13.4912 42.0954 16.2451 42.0954C19.0137 42.0954 21.2402 39.7379 21.2402 36.8411C21.2549 33.9444 19.0137 31.5869 16.2451 31.5869ZM16.2451 39.476C14.8682 39.476 13.7402 38.3049 13.7402 36.8411C13.7402 35.3774 14.8535 34.2063 16.2451 34.2063C17.6221 34.2063 18.75 35.3774 18.75 36.8411C18.75 38.3049 17.6367 39.476 16.2451 39.476Z" fill="white"/>
</g>
</svg>
