<svg width="74" height="47" viewBox="0 0 74 47" fill="none" xmlns="http://www.w3.org/2000/svg">
<path id="Vector" d="M63.1 26.4C62.2 26.4 61.3 26.5 60.5 26.7L59.8 26.9L56.5 20.2H71.9C72.6 20.2 73.2 19.6 73.2 18.9C73.2 14 69.7 9.8 64.9 9L64.3 8.9L64.2 8.3C63.3 3.5 59.1 0 54.3 0H41.1C40.4 0 39.8 0.6 39.8 1.3C39.8 2 40.4 2.6 41.1 2.6H48.6V9.5L40.6 17.5H29.1V1.4C29.1 0.7 28.5 0.1 27.8 0.1C27.1 0.1 26.5 0.7 26.5 1.4V8.9H20.4V5.8C20.4 2.6 17.8 0.1 14.7 0.1H1.3C0.6 0.1 0 0.7 0 1.4C0 2.1 0.6 2.7 1.3 2.7H8.9V8.9H1.3C0.6 8.9 0 9.5 0 10.2V19C0 19.7 0.6 20.3 1.3 20.3H14.1L19.4 25.6L16.4 28.5L15.8 28.1C14.1 27 12.2 26.4 10.2 26.4C4.7 26.4 0.1 31 0.1 36.5C0.1 42.1 4.6 46.6 10.2 46.6C15 46.6 19.2 43.2 20.1 38.5L20.2 37.8H53.1L53.2 38.5C54.2 43.2 58.3 46.6 63.1 46.6C68.7 46.6 73.2 42.1 73.2 36.5C73.2 31 68.7 26.4 63.1 26.4ZM51.3 2.7H54.4C57.6 2.7 60.4 4.7 61.4 7.7L61.8 8.9H51.3V2.7ZM11.6 2.7H14.7C16.4 2.7 17.8 4.1 17.8 5.8V8.9H11.7V2.7H11.6ZM10.2 44C6.1 44 2.7 40.7 2.7 36.5C2.7 32.4 6 29 10.2 29C14.4 29 17.7 32.3 17.7 36.5C17.7 40.7 14.4 44 10.2 44ZM20.3 35.2L20.1 34.5C19.8 33.2 19.3 32 18.6 31L18.2 30.4L21.2 27.5L29 35.3H20.3V35.2ZM32.8 35.2L32.7 35.1L15.6 18C15.4 17.7 15 17.6 14.7 17.6H2.7V11.5H26.6V19C26.6 19.7 27.2 20.3 27.9 20.3H41.1C41.5 20.3 41.8 20.2 42 19.9L50.4 11.5H63.1C66.3 11.5 69.1 13.5 70.1 16.5L70.5 17.7H54.3C53.9 17.7 53.5 17.9 53.3 18.2L47.1 26.4H36.6C35.9 26.4 35.3 27 35.3 27.7C35.3 28.4 35.9 29 36.6 29H45.1L40.5 35.2H32.8ZM53.1 35.2H43.8L54.1 21.5L57.5 28.2L56.9 28.6C55 30.1 53.7 32.2 53.2 34.5L53.1 35.2ZM63.1 44C59 44 55.6 40.7 55.6 36.5C55.6 32.4 59 29 63.1 29C67.2 29 70.6 32.3 70.6 36.5C70.6 40.7 67.2 44 63.1 44Z" fill="white"/>
</svg>
