<svg width="75" height="50" viewBox="0 0 75 50" fill="none" xmlns="http://www.w3.org/2000/svg">
<path d="M5.2047e-05 43.9779C0.00137064 47.3 2.69232 49.9939 6.01488 49.9994H25.6433C28.0368 50.0021 30.2585 48.7567 31.5053 46.7139C32.7521 44.6711 32.8437 42.1261 31.7468 39.9989H47.6884L48.9386 42.4991H38.7568C36.6855 42.4991 35.0062 44.1782 35.0062 46.2493C35.0062 48.3203 36.6855 49.9994 38.7568 49.9994H55.0096C62.9117 50.0554 70.2839 46.0332 74.5131 39.3589C75.5278 37.5657 74.9057 35.2897 73.1198 34.2619C71.3338 33.2342 69.0531 33.8395 68.012 35.6176C65.5685 39.316 61.6366 41.7686 57.2401 42.3366L56.0374 39.9327C60.2348 39.4398 63.4828 36.0226 63.7613 31.8062C63.7901 31.3011 63.7126 30.7955 63.5337 30.3224C62.8602 28.5788 61.9787 26.923 60.9083 25.3909C58.0302 21.3189 54.2808 17.9394 49.9326 15.4979C49.6094 13.3781 47.9673 11.7021 45.8544 11.3353C43.3611 6.16459 38.9495 2.16994 33.5572 0.199785C32.3019 -0.235586 30.9089 0.0522679 29.929 0.949523C28.9491 1.84678 28.5402 3.209 28.8639 4.49753C29.108 5.47066 29.75 6.29629 30.633 6.77267C33.893 8.55092 36.62 11.1658 38.5331 14.348L31.6419 18.7232C29.8412 19.8729 28.7525 21.8624 28.7552 23.9985V27.4037L26.2547 28.9834V28.7485C26.2547 26.6774 24.5754 24.9983 22.504 24.9983H8.75169V19.9981C8.75169 17.9271 7.07239 16.248 5.00103 16.248C2.92967 16.248 1.25037 17.9271 1.25037 19.9981V30.3461C0.479287 30.7891 0.00283574 31.6094 0.000198557 32.4986V34.9988C0.00342178 36.7092 0.882922 38.2988 2.33059 39.2102C0.853767 40.3501 -0.00771299 42.1127 5.2047e-05 43.9779V43.9779ZM25.6396 47.4993H6.01488C4.13076 47.4962 2.58259 46.0114 2.50098 44.1293C2.41937 42.2471 3.83305 40.634 5.70985 40.4677L25.2621 38.7652C25.3933 38.7539 25.5233 38.7489 25.6534 38.7489C28.0608 38.762 30.0055 40.717 30.0055 43.1242C30.0053 45.5366 28.0524 47.4939 25.6396 47.4993V47.4993ZM47.6334 34.3025C47.3527 33.6881 47.6109 32.9618 48.2164 32.6624C48.8219 32.363 49.5559 32.5988 49.8737 33.1949L54.5308 42.4991H51.7316L47.6334 34.3025ZM70.1799 36.8739C70.5251 36.2756 71.29 36.0705 71.8883 36.4158C72.4867 36.7609 72.6918 37.5257 72.3465 38.124C68.5768 44.0354 62.0209 47.5807 55.0096 47.4994H38.757C38.0665 47.4994 37.5068 46.9398 37.5068 46.2494C37.5068 45.559 38.0666 44.9994 38.757 44.9994H55.0098C55.5399 44.9994 56.0462 44.9669 56.5462 44.9269H56.6463C62.1592 44.4759 67.1545 41.5036 70.1799 36.8739V36.8739ZM31.8144 4.56491C31.5504 4.42384 31.3591 4.17686 31.288 3.88607C31.1932 3.48908 31.3211 3.07173 31.6219 2.79589C31.9229 2.52005 32.3495 2.42864 32.737 2.55726C37.187 4.20865 40.889 7.41459 43.1589 11.5827C42.7649 11.7183 42.3875 11.8978 42.0337 12.1177L40.6385 13.0039C38.4921 9.46283 35.448 6.55162 31.8144 4.56491V4.56491ZM31.2557 23.9984C31.2552 22.7154 31.9082 21.5206 32.9884 20.8282L43.3827 14.2266C43.8683 13.9164 44.4319 13.7503 45.008 13.7478C46.1437 13.7532 47.1333 14.5233 47.4172 15.6229L31.2557 25.8247V23.9984ZM48.7925 17.7056C52.7735 19.9574 56.2049 23.0648 58.8393 26.8035C59.7926 28.1627 60.5788 29.6317 61.1809 31.1787C61.2395 31.3283 61.2668 31.4883 61.2609 31.6488C61.045 34.9375 58.3161 37.4956 55.0199 37.4991H54.8261L52.1131 32.0726C51.1664 30.2617 48.9437 29.542 47.1149 30.4542C45.2861 31.3664 44.5243 33.5747 45.4019 35.4202L46.4408 37.4991H29.5728C28.2535 36.5731 26.6508 36.1399 25.0445 36.2753L10.9945 37.4991H5.00103C3.62003 37.4991 2.50054 36.3798 2.50054 34.9989V32.4988H23.5618C24.2051 32.4961 24.8441 32.3936 25.4559 32.195C25.4747 32.1875 25.4921 32.1837 25.5108 32.1749C25.999 32.019 26.4659 31.8031 26.9011 31.5324L48.7925 17.7056ZM22.504 27.4985C23.1945 27.4985 23.7542 28.0581 23.7542 28.7485V29.9847C23.6891 29.9847 23.6292 29.9985 23.5617 29.9985H8.75169V27.4983H22.504V27.4985ZM3.75071 19.9981C3.75071 19.3077 4.31053 18.7481 5.00088 18.7481C5.69124 18.7481 6.25105 19.3079 6.25105 19.9981V29.9986H3.75071V19.9981Z" fill="white"/>
<path d="M8.75159 44.999C9.44195 44.999 10.0016 44.4394 10.0016 43.749C10.0016 43.0587 9.44195 42.499 8.75159 42.499C8.06123 42.499 7.50159 43.0587 7.50159 43.749C7.50159 44.4394 8.06123 44.999 8.75159 44.999Z" fill="white"/>
<path d="M13.7523 44.999C14.4427 44.999 15.0023 44.4394 15.0023 43.749C15.0023 43.0587 14.4427 42.499 13.7523 42.499C13.062 42.499 12.5023 43.0587 12.5023 43.749C12.5023 44.4394 13.062 44.999 13.7523 44.999Z" fill="white"/>
<path d="M18.7532 44.999C19.4435 44.999 20.0032 44.4394 20.0032 43.749C20.0032 43.0587 19.4435 42.499 18.7532 42.499C18.0628 42.499 17.5032 43.0587 17.5032 43.749C17.5032 44.4394 18.0628 44.999 18.7532 44.999Z" fill="white"/>
<path d="M23.7542 44.999C24.4445 44.999 25.0042 44.4394 25.0042 43.749C25.0042 43.0587 24.4445 42.499 23.7542 42.499C23.0638 42.499 22.5042 43.0587 22.5042 43.749C22.5042 44.4394 23.0638 44.999 23.7542 44.999Z" fill="white"/>
</svg>
