<svg width="70" height="60" viewBox="0 0 70 60" fill="none" xmlns="http://www.w3.org/2000/svg">
<g id="Outline">
<g id="Group">
<path id="Vector" d="M13.1999 42C10.5532 42 8.3999 44.1533 8.3999 46.8C8.3999 49.4467 10.5532 51.6 13.1999 51.6C15.8466 51.6 17.9999 49.4467 17.9999 46.8C17.9999 44.1533 15.8466 42 13.1999 42ZM13.1999 49.2C11.8763 49.2 10.7999 48.1236 10.7999 46.8C10.7999 45.4764 11.8763 44.4 13.1999 44.4C14.5235 44.4 15.5999 45.4764 15.5999 46.8C15.5999 48.1236 14.5235 49.2 13.1999 49.2Z" fill="white"/>
<path id="Vector_2" d="M64.8001 42.099V30.4682C64.8001 27.5168 62.6926 25.0254 59.7892 24.5444L57.6001 24.1801V20.4C57.6001 19.0764 56.5237 18 55.2001 18V16.8C55.2001 16.1385 55.7385 15.6 56.4001 15.6H57.6001C58.2628 15.6 58.8001 15.0627 58.8001 14.4C58.8001 13.7374 58.2628 13.2 57.6001 13.2H56.4001C54.4149 13.2 52.8001 14.8149 52.8001 16.8V18C51.4765 18 50.4001 19.0764 50.4001 20.4V22.9817L43.0635 21.7606L40.9454 6.93361C42.2648 6.39913 43.2001 5.10889 43.2001 3.60001C43.2001 1.61484 41.5852 0 39.6001 0H8.40002C6.41485 0 4.80001 1.61484 4.80001 3.60001C4.80001 5.16229 5.80621 6.48193 7.20001 6.97885V29.8423C6.16405 30.2084 5.15785 30.6621 4.20181 31.217C3.09025 31.8615 2.4 33.0597 2.4 34.343C2.4 35.5501 3.02677 36.661 4.02445 37.3306C1.5474 39.7315 0 43.0861 0 46.8C0 54.0785 5.92153 60 13.2 60C18.1936 60 22.5473 57.2122 24.7894 53.1117C25.434 53.6761 26.2534 54 27.1337 54C28.6804 54 30.0307 53.0223 30.5241 51.6H50.4835C51.077 56.3279 55.1141 60 60.0001 60C65.2934 60 69.6001 55.6933 69.6001 50.4C69.6001 46.856 67.6647 43.7619 64.8001 42.099V42.099ZM62.4001 36H60.0001V33.5999H62.4001V36ZM62.4001 30.4681V31.1999H58.8001C58.1375 31.1999 57.6001 31.7373 57.6001 32.3999V37.2C57.6001 37.8626 58.1375 38.4 58.8001 38.4H62.4001V41.1159C61.6314 40.917 60.8302 40.8 60.0001 40.8C55.1139 40.8 51.077 44.4721 50.4835 49.2H40.8001V45.6C40.8001 44.9373 40.2627 44.4 39.6001 44.4H38.4001V40.8C38.4001 40.1373 37.8627 39.6 37.2001 39.6H29.6507C29.396 39.033 29.111 38.4828 28.8001 37.9472V33.5999H37.2001C37.8627 33.5999 38.4001 33.0626 38.4001 32.3999V23.9999H41.9011L59.396 26.9115C61.1369 27.2003 62.4001 28.6957 62.4001 30.4682V30.4681ZM9.60002 23.9999V7.19989H12V23.9999H9.60002ZM14.4 16.7999H15.6C16.2616 16.7999 16.8 17.3384 16.8 17.9999V23.9999H14.4V16.7999ZM15.6 14.3999H14.4V7.19989H33.7595L36.0001 22.8837V31.1999H28.8001V27.5999C28.8001 25.6148 27.1852 23.9999 25.2 23.9999H19.2V17.9999C19.2 16.0148 17.5852 14.3999 15.6 14.3999V14.3999ZM36.1834 7.19989H38.5594L40.6167 21.5999H38.2407L36.1834 7.19989ZM36.0001 44.4H31.0259C30.916 43.582 30.7487 42.7813 30.5271 42H36.0001V44.4ZM31.1883 46.8H38.4001V49.2H31.0231C31.1305 48.4057 31.1885 47.6055 31.1883 46.8V46.8ZM52.8001 20.3999H55.2001V23.7804L52.8001 23.381V20.3998V20.3999ZM8.40002 2.39988H39.6001C40.2616 2.39988 40.8001 2.93833 40.8001 3.59989C40.8001 4.26145 40.2616 4.79989 39.6001 4.79989H8.40002C7.73845 4.79989 7.20001 4.26145 7.20001 3.59989C7.20001 2.93833 7.73845 2.39988 8.40002 2.39988ZM9.60002 26.3999H25.2C25.8616 26.3999 26.4001 26.9384 26.4001 27.5999V34.6758C23.1394 31.1542 18.5247 28.8959 13.5417 28.8028C12.2135 28.7812 10.8923 28.912 9.60002 29.1759V26.3999ZM13.2 57.6C7.24513 57.6 2.4 52.7549 2.4 46.8C2.4 40.8451 7.24513 36 13.2 36C19.1549 36 24 40.8451 24 46.8C24 52.7549 19.1549 57.6 13.2 57.6ZM27.1336 51.6C26.6309 51.6 26.3356 51.3164 26.2043 51.1476C25.97 50.8452 25.8915 50.4545 25.9887 50.0748C25.9982 50.0381 25.9946 50.0022 26.0002 49.9655C26.2517 48.9492 26.3999 47.8928 26.3999 46.8C26.3999 39.5215 20.4784 33.5999 13.1999 33.5999C10.7975 33.5999 8.54978 34.2554 6.60733 35.3815C6.58525 35.3928 6.56125 35.3948 6.53953 35.4076C6.04381 35.6983 5.59201 35.5014 5.41981 35.403C5.03137 35.1804 4.79989 34.7842 4.79989 34.343C4.79989 33.9123 5.03245 33.5098 5.40637 33.2924C7.8539 31.8715 10.6212 31.1408 13.497 31.2029C21.1869 31.3465 27.8666 37.4367 28.7045 45.0686C28.9161 46.9881 28.7771 48.8948 28.2926 50.7369C28.159 51.2449 27.6826 51.6 27.1336 51.6V51.6ZM60.0001 57.6C56.0298 57.6 52.8001 54.3703 52.8001 50.4C52.8001 46.4297 56.0298 43.2 60.0001 43.2C63.9704 43.2 67.2001 46.4297 67.2001 50.4C67.2001 54.3703 63.9704 57.6 60.0001 57.6Z" fill="white"/>
<path id="Vector_3" d="M60.0002 46.8C58.015 46.8 56.4001 48.4149 56.4001 50.4001C56.4001 52.3852 58.015 54.0001 60.0002 54.0001C61.9853 54.0001 63.6002 52.3852 63.6002 50.4001C63.6002 48.4149 61.9853 46.8 60.0002 46.8ZM60.0002 51.6001C59.3386 51.6001 58.8002 51.0616 58.8002 50.4001C58.8002 49.7385 59.3386 49.2001 60.0002 49.2001C60.6617 49.2001 61.2002 49.7385 61.2002 50.4001C61.2002 51.0616 60.6617 51.6001 60.0002 51.6001Z" fill="white"/>
<path id="Vector_4" d="M44.4002 33.6H49.2002C49.8628 33.6 50.4002 33.0626 50.4002 32.4C50.4002 31.7373 49.8628 31.2 49.2002 31.2H44.4002C43.7376 31.2 43.2002 31.7373 43.2002 32.4C43.2002 33.0626 43.7376 33.6 44.4002 33.6Z" fill="white"/>
<path id="Vector_5" d="M44.4002 38.4H49.2002C49.8628 38.4 50.4002 37.8626 50.4002 37.2C50.4002 36.5374 49.8628 36 49.2002 36H44.4002C43.7376 36 43.2002 36.5374 43.2002 37.2C43.2002 37.8626 43.7376 38.4 44.4002 38.4Z" fill="white"/>
</g>
</g>
</svg>
