<svg width="22" height="21" viewBox="0 0 22 21" fill="none" xmlns="http://www.w3.org/2000/svg">
<g id="Group 2">
<path id="Vector" d="M18.8408 5.5H3.15921C2.96818 5.50096 2.78402 5.57657 2.64115 5.71268C2.49828 5.84879 2.40647 6.0361 2.38289 6.23958L1.00493 19.5729C0.992675 19.6891 1.00333 19.8067 1.0362 19.9182C1.06907 20.0297 1.12343 20.1324 1.19573 20.2199C1.26803 20.3073 1.35667 20.3774 1.45587 20.4257C1.55507 20.474 1.66263 20.4993 1.77154 20.5H20.2285C20.3374 20.4993 20.4449 20.474 20.5441 20.4257C20.6433 20.3774 20.732 20.3073 20.8043 20.2199C20.8766 20.1324 20.9309 20.0297 20.9638 19.9182C20.9967 19.8067 21.0073 19.6891 20.9951 19.5729L19.6171 6.23958C19.5935 6.0361 19.5017 5.84879 19.3588 5.71268C19.216 5.57657 19.0318 5.50096 18.8408 5.5V5.5Z" stroke="#86898D" stroke-linecap="round" stroke-linejoin="round"/>
<path id="Vector_2" d="M7.11841 8.82609V5.34783C7.11841 4.19471 7.52736 3.08882 8.2553 2.27345C8.98323 1.45807 9.97053 1 11 1C12.0294 1 13.0167 1.45807 13.7447 2.27345C14.4726 3.08882 14.8816 4.19471 14.8816 5.34783V8.82609" stroke="#86898D" stroke-linecap="round" stroke-linejoin="round"/>
</g>
</svg>
