<svg width="14" height="14" viewBox="0 0 14 14" fill="none" xmlns="http://www.w3.org/2000/svg">
<path id="Vector" d="M4.43017 7.04131C4.96803 8.15204 5.86619 9.04789 6.9783 9.5829C7.06033 9.62174 7.15106 9.63855 7.24157 9.63168C7.33207 9.62481 7.41923 9.59448 7.49445 9.5437L9.12787 8.45257C9.20004 8.40363 9.28343 8.37376 9.37026 8.36576C9.45709 8.35777 9.54453 8.3719 9.62443 8.40684L12.6822 9.7201C12.7867 9.7636 12.874 9.84024 12.9307 9.93823C12.9873 10.0362 13.0102 10.1501 12.9958 10.2624C12.8989 11.0188 12.5297 11.714 11.9572 12.2179C11.3848 12.7218 10.6484 12.9998 9.88577 13C7.52912 13 5.26899 12.0638 3.60258 10.3974C1.93618 8.73101 1 6.47088 1 4.11423C1.00017 3.35162 1.27821 2.6152 1.7821 2.04277C2.28598 1.47034 2.98118 1.10112 3.7376 1.00421C3.84988 0.989785 3.96378 1.01267 4.06177 1.06934C4.15976 1.12601 4.2364 1.21332 4.2799 1.31782L5.59316 4.38211C5.62731 4.46074 5.6416 4.54656 5.63476 4.63202C5.62793 4.71747 5.60018 4.79993 5.55396 4.87213L4.46284 6.53168C4.41426 6.60674 4.38575 6.69301 4.38003 6.78223C4.37431 6.87146 4.39157 6.96066 4.43017 7.04131V7.04131Z" stroke="#86898D" stroke-linecap="round" stroke-linejoin="round"/>
</svg>
